#!OML:ASF F:\VICON\USERDATA\INSTALL\rory3\rory3.ASF
:FULLY-SPECIFIED
:DEGREES
17
root 0.570849520091863 18.148882117325744 -18.317288008628054 -3.5263529481958606 -0.43589389366789844 -4.630973518529355
lfemur -9.413360023085097 0.5066548127643355 -14.889607796498318
ltibia 65.4879815054149
lfoot 10.12168125811231 -14.173381379722837
ltoes -6.862004854190015
rfemur -14.977499240259323 6.482003554348244 29.499094384404373
rtibia 29.188305170669608
rfoot -8.577560330408232 -4.967023088033559
rtoes 9.102620869147035
lowerback 11.856484160072124 -1.1570302716547978 2.6081553841813667
upperback -0.4236337182916925 -0.9520653502561784 3.0802436919911758
thorax -7.107057543100918 -0.5001245546664732 1.9560865571210468
lowerneck -15.586103681347884 -2.7404930935176175 -2.3045325071641147
upperneck 23.38279641619192 -3.081096065085063 -0.6791661420613172
head 10.045497760230147 -1.7134632311724118 -0.257857724131035
lclavicle -1.387428034741416e-15 -1.8436986327867614e-15
lhumerus -29.686501132092786 3.653289323462453 81.865496743031
lradius 26.50559626996582
lwrist 2.813290973301825
lhand -27.9803981178272 22.11370444581967
lfingers 7.125019999999999
lthumb -1.366988117430833 52.08910441354846
rclavicle -1.387428034741416e-15 -1.8436986327867614e-15
rhumerus -35.24669203345325 -27.314794979177876 -71.0896068651958
rradius 19.175610437466453
rwrist 11.774091068264628
rhand -17.26950729753199 22.4345995799382
rfingers 7.125019999999999
rthumb 8.975282701939316 -7.354470601501406
18
root 0.530608497430941 18.179180237058947 -17.657088301648294 -3.643392027835443 -1.3544205419365916 -4.770733133349138
lfemur -14.19319681350812 2.008041929702668 -14.639208191413404
ltibia 67.41138039447424
lfoot 1.934629806745698 -8.550580130855476
ltoes -1.212263457828846
rfemur -12.036201339473825 6.982732000389799 30.240593249462883
rtibia 28.919305321880174
rfoot -10.534597958732961 -3.7902160286658018
rtoes 5.040667396873504
lowerback 11.661186158792328 -0.6206589117303742 2.7170650997919106
upperback -0.20897396057603293 -0.2569944114678161 2.858606148641864
thorax -6.777141901465073 -0.16745076330295638 1.528048363491827
lowerneck -15.51550459678703 -2.8915792872278794 -2.3898711319006725
upperneck 23.510895581141234 -3.3666322406417826 -0.31185621015580595
head 10.088896999050114 -1.8093995074035343 -0.15270787078163267
lclavicle -1.3874280642612802e-15 -1.843698503335833e-15
lhumerus -30.862799056498176 4.7084972750044365 81.99199602116228
lradius 26.049397107297203
lwrist 2.540251667285321
lhand -27.89779844746902 23.17530150142363
lfingers 7.125019999999999
lthumb -1.287198447147825 53.1512014682955
rclavicle -1.3874280642612802e-15 -1.843698503335833e-15
rhumerus -32.74539566556995 -25.328597420870032 -73.3779032684343
rradius 19.909309021344978
rwrist 9.99942386155322
rhand -16.078217013827995 21.77360335544203
rfingers 7.125019999999999
rthumb 10.124682988544485 -7.962777127738707
19
root 0.5035911536047697 18.1534818318727 -17.012888587567012 -3.308124664278001 -2.2133064727669054 -4.931382690595834
lfemur -18.87329367090477 2.9620781913902228 -14.610408236834946
ltibia 67.02798061592298
lfoot -2.7054653482288806 -5.349195113379997
ltoes -3.8797193957265512
rfemur -10.37470252529129 7.269591110152509 30.90909222625534
rtibia 29.228305148184766
rfoot -12.253195876015639 -5.787921036755094
rtoes 5.384596844164729
lowerback 11.536487434984906 0.05442060685336017 3.1869038729298906
upperback -0.3032060982822984 0.6679375149733243 2.349451792155058
thorax -6.799681603703408 0.2585261281527892 0.5654154259143783
lowerneck -15.818200671809269 -3.189971769874924 -1.8659995742842233
upperneck 23.87649319788963 -3.936134612783367 -0.25656582251746957
head 10.272593777189009 -2.0159314908596118 -0.30588828679761143
lclavicle -1.387428050479136e-15 -1.8436986314023275e-15
lhumerus -32.02399700754768 4.6161874542039865 81.92559640007202
lradius 25.591697947381764
lwrist 2.467361852549228
lhand -27.83749868811553 19.339612139912603
lfingers 7.125019999999999
lthumb -1.228978687730895 49.31581210403906
rclavicle -1.387428050479136e-15 -1.8436986314023275e-15
rhumerus -30.750298562637894 -22.886400423135967 -75.90969928893826
rradius 21.450606046466913
rwrist 7.415797928125718
rhand -17.17050810498041 24.480187895867648
rfingers 7.125019999999999
rthumb 9.070811894637648 -5.304792306284602
20
root 0.48736054779965504 18.11478423340158 -16.380688868159844 -3.080966450582447 -2.476205227223578 -5.475451191132475
lfemur -22.944790936965397 2.6251095117742276 -14.199208885353684
ltibia 64.09458231023186
lfoot -5.627152297505328 -2.9776788043256497
ltoes -6.57125529695438
rfemur -8.30178400474042 7.285921059474224 31.902290706061283
rtibia 29.604404936770976
rfoot -14.418293252198989 -6.593949022634032
rtoes 4.96263752227073
lowerback 11.676086006304207 0.31621473019176455 3.8381821722856397
upperback -0.42164375761894646 1.1108675642334123 2.245732941784227
thorax -6.986039141819484 0.44648631527804744 0.013075956850944426
lowerneck -15.541004266139748 -3.2143011569486593 -1.8353800677288752
upperneck 23.62449484061229 -3.9813140076550213 -0.2496898986708917
head 10.128296308024922 -2.0341607832891864 -0.30627027536645357
lclavicle -1.3874280789979016e-15 -1.8436986033661214e-15
lhumerus -33.636694161920346 5.220016282000922 81.95119625398634
lradius 25.704197740893868
lwrist 3.375569544159428
lhand -26.149205425818742 22.354703777395173
lfingers 7.125019999999999
lthumb 0.4016015741786134 52.334103734152
rclavicle -1.3874280789979016e-15 -1.8436986033661214e-15
rhumerus -28.93780119455391 -19.170204991566344 -78.07239588959547
rradius 23.760401588299548
rwrist 4.129183101187849
rhand -15.378822718165639 16.54993319220355
rfingers 7.125019999999999
rthumb 10.799377286812739 -13.152367492341648
